<svg style="fill: white;" xmlns="http://www.w3.org/2000/svg" viewBox="0 0 64 64" x="0px" y="0px">
  <g data-name="25-Graphic File" style="fill: white;">
    <path d="M58.71,8.29l-8-8A1,1,0,0,0,50,0H10A1,1,0,0,0,9,1V3H6A1,1,0,0,0,5,4V63a1,1,0,0,0,1,1H52a1,1,0,0,0,1-1V60h5a1,1,0,0,0,1-1V9A1,1,0,0,0,58.71,8.29ZM51,3.41,55.59,8H51ZM51,62H7V5H9V59a1,1,0,0,0,1,1H51Zm6-4H11V2H49V9a1,1,0,0,0,1,1h7Z"></path>
    <rect x="14" y="5" width="2" height="2"></rect>
    <rect x="18" y="5" width="2" height="2"></rect>
    <rect x="14" y="9" width="13" height="2"></rect>
    <rect x="15" y="52" width="9" height="2"></rect>
    <rect x="44" y="52" width="9" height="2"></rect>
    <path
      d="M45.9,35.44a1,1,0,0,0,0-.94l-11-19a1,1,0,0,0-1.73,0l-11,19A1,1,0,0,0,22.86,36c.25,0,6.14.95,6.14,7V54h2V48h6v6h2V43c0-6,5.89-7,6.14-7A1,1,0,0,0,45.9,35.44ZM34,29a1,1,0,1,1-1,1A1,1,0,0,1,34,29Zm3,17H31V44h6Zm0-4H31a8.85,8.85,0,0,0-6.42-7.66L33,19.72v7.46a3,3,0,1,0,2,0V19.72l8.46,14.61A8.85,8.85,0,0,0,37,42Z"></path>
    <path d="M48,16v1H41v2h7v1a1,1,0,0,0,1,1h1V40H49a1,1,0,0,0-1,1v1H41v2h7v1a1,1,0,0,0,1,1h4a1,1,0,0,0,1-1V41a1,1,0,0,0-1-1H52V21h1a1,1,0,0,0,1-1V16a1,1,0,0,0-1-1H49A1,1,0,0,0,48,16Zm4,28H50V42h2ZM50,17h2v2H50Z"></path>
    <path d="M20,41a1,1,0,0,0-1-1H18V21h1a1,1,0,0,0,1-1V19h7V17H20V16a1,1,0,0,0-1-1H15a1,1,0,0,0-1,1v4a1,1,0,0,0,1,1h1V40H15a1,1,0,0,0-1,1v4a1,1,0,0,0,1,1h4a1,1,0,0,0,1-1V44h7V42H20ZM16,17h2v2H16Zm2,27H16V42h2Z"></path>
  </g>
</svg>
