<svg xmlns="http://www.w3.org/2000/svg" xmlns:xlink="http://www.w3.org/1999/xlink" version="1.1" x="0px" y="0px" viewBox="0 0 64 64" style="enable-background:new 0 0 64 64;fill: #fff;" xml:space="preserve">
	<style type="text/css">
		.st0 {
			display: none;
		}
		.st1 {
			display: inline;
		}
		.st2 {
			fill: none;
			stroke: #B3B3B3;
			stroke-width: 0.1;
			stroke-miterlimit: 10;
		}
	</style>
	<g class="st0">
		<g class="st1">
			<rect x="2" y="2" class="st2" width="60" height="60"></rect>
			<line class="st2" x1="32" y1="2" x2="32" y2="62"></line>
			<line class="st2" x1="62" y1="32" x2="2" y2="32"></line>
			<line class="st2" x1="2" y1="2" x2="62" y2="62"></line>
			<rect x="10" y="10" class="st2" width="44" height="44"></rect>
			<line class="st2" x1="62" y1="2" x2="2" y2="62"></line>
			<line class="st2" x1="2" y1="32" x2="32" y2="2"></line>
			<line class="st2" x1="32" y1="2" x2="62" y2="32"></line>
			<line class="st2" x1="62" y1="32" x2="32" y2="62"></line>
			<line class="st2" x1="32" y1="62" x2="2" y2="32"></line>
			<circle class="st2" cx="32" cy="32" r="21"></circle>
		</g>
	</g>
	<path d="M48,24V2H2v48h22v12h38V24H48z M12,4h2v2h-2V4z M8,4h2v2H8V4z M4,4h2v2H4V4z M4,48V8h42v16H24v10H6v2h18v2H6v2h18v2H6v2h18  v4H4z M36,26v2h-2v-2H36z M32,26v2h-2v-2H32z M28,26v2h-2v-2H28z M60,60H26V30h34V60z"></path>
	<rect x="6" y="10" width="38" height="8"></rect>
	<rect x="6" y="20" width="16" height="12"></rect>
	<rect x="24" y="20" width="20" height="2"></rect>
	<polygon points="29.6,39.8 34.7,36 29.6,32.2 28.4,33.8 31.3,36 28.4,38.2 "></polygon>
	<rect x="34" y="38" width="6" height="2"></rect>
</svg>
