<svg class="svg-icon" xmlns="http://www.w3.org/2000/svg" xmlns:xlink="http://www.w3.org/1999/xlink" version="1.1" x="0px" y="0px" viewBox="0 0 64 64" style="enable-background:new 0 0 64 64; fill: #fff;" xml:space="preserve">
  <path
    d="M57,25V7c0-2.757-2.243-5-5-5H12C9.243,2,7,4.243,7,7v26H3c-0.553,0-1,0.447-1,1v2c0,2.757,2.243,5,5,5h31v16  c0,2.757,2.243,5,5,5h14c2.757,0,5-2.243,5-5V30C62,27.243,59.757,25,57,25z M60,30H40c0-1.654,1.346-3,3-3h13h1  C58.654,27,60,28.346,60,30z M51,25h-8c-2.414,0-4.434,1.721-4.899,4H13V8h38V25z M40,40v-6v-2h20v20H40V40z M9,7  c0-1.654,1.346-3,3-3h40c1.654,0,3,1.346,3,3v18h-2V7c0-0.553-0.447-1-1-1H12c-0.553,0-1,0.447-1,1v23c0,0.553,0.447,1,1,1h26v2H9V7  z M7,39c-1.654,0-3-1.346-3-3v-1h4h30v4H7z M57,60H43c-1.654,0-3-1.346-3-3v-3h20v3C60,58.654,58.654,60,57,60z"></path>
  <path
    d="M15.293,48.707l1.414-1.414l-4-4c-0.391-0.391-1.023-0.391-1.414,0l-4,4l1.414,1.414L11,46.414V51c0,2.757,2.243,5,5,5  h16.439l-2.146,2.146l1.414,1.414l4-4c0.391-0.391,0.391-1.023,0-1.414l-4-4l-1.414,1.414L32.732,54H16c-1.654,0-3-1.346-3-3v-4.586  L15.293,48.707z"></path>
  <rect x="47" y="56" width="6" height="2"></rect>
  <path d="M48,34h-5c-0.553,0-1,0.447-1,1v5c0,0.553,0.447,1,1,1h5c0.553,0,1-0.447,1-1v-5C49,34.447,48.553,34,48,34z M47,39h-3v-3h3  V39z"></path>
  <path d="M48,43h-5c-0.553,0-1,0.447-1,1v5c0,0.553,0.447,1,1,1h5c0.553,0,1-0.447,1-1v-5C49,43.447,48.553,43,48,43z M47,48h-3v-3h3  V48z"></path>
  <rect x="51" y="34" width="6" height="2"></rect>
  <rect x="51" y="38" width="6" height="2"></rect>
  <rect x="51" y="43" width="6" height="2"></rect>
  <rect x="51" y="47" width="6" height="2"></rect>
  <path d="M16,17h5c0.553,0,1-0.447,1-1v-5c0-0.553-0.447-1-1-1h-5c-0.553,0-1,0.447-1,1v5C15,16.553,15.447,17,16,17z M17,12h3v3h-3  V12z"></path>
  <path d="M16,26h5c0.553,0,1-0.447,1-1v-5c0-0.553-0.447-1-1-1h-5c-0.553,0-1,0.447-1,1v5C15,25.553,15.447,26,16,26z M17,21h3v3h-3  V21z"></path>
  <rect x="24" y="10" width="6" height="2"></rect>
  <rect x="24" y="14" width="6" height="2"></rect>
  <path d="M35,17h5c0.553,0,1-0.447,1-1v-5c0-0.553-0.447-1-1-1h-5c-0.553,0-1,0.447-1,1v5C34,16.553,34.447,17,35,17z M36,12h3v3h-3  V12z"></path>
  <rect x="43" y="10" width="6" height="2"></rect>
  <rect x="43" y="14" width="6" height="2"></rect>
  <rect x="24" y="19" width="25" height="2"></rect>
  <rect x="24" y="23" width="13" height="2"></rect>
</svg>
